<svg width="96" height="20" viewBox="0 0 96 20" fill="none" xmlns="http://www.w3.org/2000/svg">
<g clip-path="url(#clip0_1008_3026)">
<path d="M7.35585 13.5261C7.2384 13.4569 7.15331 13.556 7.06406 13.5948C6.4102 13.8804 5.74431 14.0969 5.02292 14.1408C2.65392 14.2839 0.430127 12.4873 0.0634249 10.1162C-0.293566 7.80818 0.885152 5.68483 3.02016 4.78911C4.39218 4.21316 5.76326 3.63628 7.13574 3.06126C7.37666 2.96028 7.37897 2.96402 7.37759 3.23189C7.3725 4.22812 7.36371 5.22435 7.3651 6.22058C7.3651 6.3842 7.31424 6.46414 7.15932 6.52772C6.16789 6.93444 5.18154 7.35284 4.1938 7.76844C3.46363 8.07559 3.04421 8.86004 3.19866 9.62626C3.35588 10.4065 4.04998 10.9525 4.85923 10.9315C5.05344 10.9264 5.24026 10.8819 5.41968 10.8062C5.98107 10.5701 6.54199 10.3331 7.10337 10.0966C7.34383 9.99511 7.35215 9.99838 7.35077 10.2466C7.34429 11.3284 7.33551 12.4097 7.32903 13.4915C7.32903 13.5046 7.34429 13.5177 7.35262 13.5308L7.35678 13.5265L7.35585 13.5261Z" fill="white"/>
<path d="M7.35117 13.5303C7.70909 13.4349 8.03787 13.2643 8.37821 13.1245C9.09081 12.8328 9.79647 12.5228 10.5095 12.2316C11.3373 11.8936 11.7303 10.9109 11.4159 10.104C11.088 9.26209 10.1373 8.84695 9.29335 9.18588C8.707 9.4215 8.12619 9.67067 7.54677 9.92359C7.38076 9.99605 7.34377 9.96286 7.34516 9.78334C7.35441 8.75579 7.35348 7.72777 7.35441 6.70023C7.35441 6.60439 7.35441 6.52725 7.46539 6.47583C8.46977 6.00693 9.50792 5.71382 10.6224 5.91858C12.4475 6.25471 13.7465 7.27805 14.399 9.0461C15.3437 11.607 13.9624 14.296 11.6734 15.2151C10.2931 15.7691 8.92896 16.3638 7.55695 16.9393C7.32111 17.0379 7.31972 17.0356 7.32065 16.7686C7.32481 15.7644 7.32944 14.7603 7.33545 13.7561C7.33545 13.679 7.34793 13.6023 7.35487 13.5252L7.35071 13.5294L7.35117 13.5303Z" fill="white"/>
</g>
<path d="M24.5906 16.1875C27.6609 16.1875 29.45 14.3359 29.45 11.3594V11.0781C29.45 10.5078 29.114 10.1641 28.575 10.1641H25.45C24.9968 10.1641 24.6843 10.4453 24.6843 10.875C24.6843 11.2969 24.9968 11.5781 25.45 11.5781H27.7234V11.7734C27.7 13.4844 26.4343 14.6562 24.6062 14.6562C22.4578 14.6562 21.1218 12.9922 21.1218 10.2969C21.1218 7.64844 22.4187 6.07031 24.575 6.07031C25.8796 6.07031 26.8796 6.6875 27.45 7.88281C27.6687 8.32031 27.9265 8.50781 28.325 8.50781C28.8015 8.50781 29.1062 8.19531 29.1062 7.73438C29.1062 7.53906 29.0828 7.34375 28.9812 7.09375C28.3562 5.58594 26.6687 4.53906 24.5671 4.53906C21.3562 4.53906 19.3328 6.75781 19.3328 10.3125C19.3328 13.9297 21.364 16.1875 24.5906 16.1875ZM34.7603 16.1562C36.2915 16.1562 37.4868 15.5391 38.0259 14.4609C38.0962 14.2969 38.1431 14.1406 38.1431 14.0078C38.1431 13.5859 37.8462 13.3203 37.44 13.3203C37.1978 13.3203 37.0259 13.4062 36.8462 13.6172C36.2212 14.4688 35.6431 14.7891 34.7212 14.7891C33.3775 14.7891 32.5337 13.8516 32.5337 12.3516V12.3125H37.5025C38.0259 12.3125 38.3384 12 38.3384 11.4531C38.3384 9.21094 36.8306 7.63281 34.6431 7.63281C32.315 7.63281 30.8306 9.32031 30.8306 11.9297C30.8306 14.5859 32.2837 16.1562 34.7603 16.1562ZM32.5415 11.1328C32.6275 9.85156 33.4712 8.99219 34.6353 8.99219C35.8071 8.99219 36.6118 9.84375 36.6509 11.1328H32.5415ZM40.7346 16.1484C41.2268 16.1484 41.5784 15.8125 41.5784 15.2578V11.2109C41.5784 9.9375 42.344 9.09375 43.5315 9.09375C44.7034 9.09375 45.2815 9.77344 45.2815 11.0078V15.2578C45.2815 15.8125 45.6331 16.1484 46.1253 16.1484C46.6253 16.1484 46.9768 15.8125 46.9768 15.2578V10.6797C46.9768 8.79688 45.9378 7.64062 44.1253 7.64062C42.8596 7.64062 42.0003 8.20312 41.555 9.14062H41.5159V8.49219C41.5159 7.96875 41.18 7.63281 40.6956 7.63281C40.2034 7.63281 39.8909 7.96875 39.8909 8.48438V15.2578C39.8909 15.8125 40.2346 16.1484 40.7346 16.1484ZM49.6543 16H56.5293C57.0137 16 57.3496 15.7031 57.3496 15.2422C57.3496 14.7812 57.0215 14.4844 56.5293 14.4844H50.9278V14.4297L56.7871 6.32031C56.9903 6.03125 57.0762 5.85938 57.0762 5.59375C57.0762 5.07031 56.7168 4.72656 56.1543 4.72656H49.6309C49.1465 4.72656 48.8184 5.02344 48.8184 5.48438C48.8184 5.94531 49.1465 6.24219 49.6309 6.24219H54.9278V6.29688L49.0371 14.4141C48.834 14.6953 48.7559 14.8984 48.7559 15.1562C48.7559 15.6641 49.1153 16 49.6543 16ZM66.4078 16.125C66.9468 16.125 67.2828 15.7812 67.2828 15.2188V6.24219H70.0406C70.525 6.24219 70.8531 5.94531 70.8531 5.48438C70.8531 5.02344 70.525 4.72656 70.0406 4.72656H62.7671C62.2828 4.72656 61.9546 5.02344 61.9546 5.48438C61.9546 5.94531 62.2828 6.24219 62.7671 6.24219H65.5328V15.2188C65.5328 15.7812 65.8609 16.125 66.4078 16.125ZM73.7415 16.1562C75.2728 16.1562 76.4681 15.5391 77.0071 14.4609C77.0774 14.2969 77.1243 14.1406 77.1243 14.0078C77.1243 13.5859 76.8274 13.3203 76.4212 13.3203C76.179 13.3203 76.0071 13.4062 75.8274 13.6172C75.2024 14.4688 74.6243 14.7891 73.7024 14.7891C72.3587 14.7891 71.5149 13.8516 71.5149 12.3516V12.3125H76.4837C77.0071 12.3125 77.3196 12 77.3196 11.4531C77.3196 9.21094 75.8118 7.63281 73.6243 7.63281C71.2962 7.63281 69.8118 9.32031 69.8118 11.9297C69.8118 14.5859 71.2649 16.1562 73.7415 16.1562ZM71.5228 11.1328C71.6087 9.85156 72.4524 8.99219 73.6165 8.99219C74.7884 8.99219 75.5931 9.84375 75.6321 11.1328H71.5228ZM82.3878 16.1562C83.9112 16.1562 85.2471 15.3516 85.6768 14.2188C85.7393 14.0547 85.7706 13.9141 85.7706 13.7812C85.7706 13.3594 85.4659 13.0781 85.0518 13.0781C84.6846 13.0781 84.505 13.2188 84.2706 13.625C83.8721 14.3359 83.3175 14.7422 82.4034 14.7422C81.0987 14.7422 80.2237 13.6797 80.2237 11.8906C80.2237 10.1406 81.0831 9.03906 82.4034 9.03906C83.2706 9.03906 83.8487 9.41406 84.2706 10.1953C84.4737 10.5703 84.6768 10.7109 85.0362 10.7109C85.4503 10.7109 85.755 10.4453 85.755 10.0156C85.755 9.89844 85.7237 9.75781 85.6768 9.625C85.3175 8.47656 83.9581 7.63281 82.3721 7.63281C80.0284 7.63281 78.505 9.30469 78.505 11.9062C78.505 14.5234 80.0362 16.1562 82.3878 16.1562ZM88.284 16.1484C88.7762 16.1484 89.1278 15.8125 89.1278 15.2578V11.25C89.1278 9.95312 89.8934 9.09375 91.1434 9.09375C92.3309 9.09375 92.9403 9.82031 92.9403 11.0312V15.2578C92.9403 15.8125 93.2918 16.1484 93.784 16.1484C94.284 16.1484 94.6356 15.8125 94.6356 15.2578V10.7031C94.6356 8.84375 93.5574 7.64062 91.7528 7.64062C90.5028 7.64062 89.6043 8.19531 89.1512 9.15625H89.1121V5.45312C89.1121 4.92188 88.7996 4.57812 88.2762 4.57812C87.7606 4.57812 87.4403 4.92188 87.4403 5.45312V15.2578C87.4403 15.8125 87.7918 16.1484 88.284 16.1484Z" fill="white"/>
<defs>
<clipPath id="clip0_1008_3026">
<rect width="14.7" height="14" fill="white" transform="translate(0 3)"/>
</clipPath>
</defs>
</svg>
