
<svg width="176" height="149" viewBox="0 0 176 149" fill="none" xmlns="http://www.w3.org/2000/svg">
<path d="M90.0957 119.387C117.454 119.387 139.688 97.2262 139.688 69.9591C139.688 42.6921 117.454 20.5312 90.0957 20.5312C62.6358 20.5312 40.5039 42.59 40.5039 69.9591C40.5039 97.2262 62.6358 119.387 90.0957 119.387Z" fill="#EAEEF9"/>
<path d="M58.8908 56.4492H118.838C121.082 56.4492 123.103 58.3513 123.103 60.701V98.4075C123.103 100.645 121.195 102.659 118.838 102.659H58.8908C56.6456 102.659 54.625 100.757 54.625 98.4075V60.701C54.625 58.3513 56.6456 56.4492 58.8908 56.4492Z" fill="url(#paint0_linear_2522_121284)"/>
<path d="M147.78 57.6042C149.317 56.1745 149.42 53.8256 147.986 52.2938C146.551 50.7619 144.194 50.6599 142.657 52.0895C141.121 53.5193 141.018 55.8681 142.452 57.3999C143.784 58.8297 146.244 59.034 147.78 57.6042Z" fill="#EAEEF9"/>
<path d="M147.983 40.7528C148.598 40.1399 148.701 39.1187 148.086 38.506C147.471 37.8932 146.447 37.7911 145.832 38.4038C145.217 39.0166 145.114 40.0379 145.729 40.6506C146.344 41.3655 147.37 41.3654 147.983 40.7528Z" fill="#EAEEF9"/>
<path d="M107.72 17.5698C108.129 17.1613 108.232 16.4464 107.822 16.038C107.412 15.6294 106.695 15.5274 106.285 15.9358C105.875 16.3443 105.773 17.0592 106.183 17.4676C106.593 17.8762 107.31 17.9782 107.72 17.5698Z" fill="#EAEEF9"/>
<g filter="url(#filter0_d_2522_121284)">
<path d="M144.881 36.5297L129.951 63.0472C129.389 63.9423 128.267 64.278 127.48 63.7186L101.885 48.8374C100.987 48.278 100.651 47.1591 101.212 46.3758L120.857 12.5855C121.419 11.6903 122.542 11.3547 123.327 11.9141L141.85 22.6554L144.881 36.5297Z" fill="#F2F6FA"/>
</g>
<path d="M141.849 22.6562L137.583 29.8171C137.021 30.936 137.358 32.0549 138.369 32.7262L144.767 36.4186" fill="#D5DAE6"/>
<path d="M124.226 29.5962C124.674 29.4844 125.124 29.4844 125.461 29.4844C125.909 29.4844 126.359 29.4844 126.807 29.4844C127.257 29.5962 127.818 29.7081 128.267 29.82C128.828 30.0438 129.278 30.2675 129.726 30.4913C130.4 30.827 130.961 31.2746 131.41 31.834C131.86 32.2816 132.197 32.841 132.42 33.5123C132.645 34.0718 132.645 34.7431 132.645 35.3026C132.533 35.9739 132.308 36.6453 131.972 37.2047C131.635 37.7641 131.298 38.2117 130.849 38.6592C130.4 38.9949 130.063 39.2186 129.502 39.4424C129.053 39.6661 128.604 39.7781 128.155 39.7781L126.92 39.89C126.583 39.89 126.247 40.0019 125.797 40.1138C125.461 40.2257 125.236 40.3375 125.011 40.5613L123.776 42.1277L121.756 41.0088L122.654 38.9949C122.766 38.6592 123.103 38.3236 123.328 38.0997C123.665 37.8759 124.001 37.7641 124.338 37.6522C124.787 37.5403 125.124 37.5403 125.573 37.4284C126.022 37.4284 126.471 37.3165 126.92 37.2047C127.369 37.0928 127.705 36.9809 128.155 36.7571C128.604 36.5333 128.828 36.1976 129.053 35.7501C129.165 35.5263 129.278 35.1906 129.389 34.855C129.389 34.5193 129.389 34.2955 129.278 34.0718C129.165 33.7361 129.053 33.5123 128.828 33.2885C128.604 33.0648 128.38 32.841 128.043 32.6172C127.705 32.3935 127.257 32.1696 126.807 32.0577C126.471 31.9458 126.134 31.9458 125.797 31.9458C125.461 31.9458 125.236 31.9458 125.011 31.9458C124.899 31.9458 124.674 31.9458 124.563 31.834C124.338 31.7221 124.113 31.3864 124.113 31.1627L124.226 29.5962ZM118.5 44.3656C118.613 44.1417 118.838 43.9179 119.061 43.6942C119.286 43.5823 119.511 43.3585 119.736 43.3585C120.297 43.2466 120.858 43.2466 121.307 43.5823C121.532 43.6942 121.756 43.9179 121.98 44.1417C122.093 44.3656 122.205 44.5893 122.317 44.8131C122.654 45.932 121.98 46.9389 120.858 47.2747C120.297 47.3865 119.736 47.2747 119.286 47.0508C119.061 46.9389 118.838 46.7152 118.613 46.4914C118.5 46.2676 118.276 46.0439 118.276 45.8201C118.163 45.5962 118.163 45.2606 118.276 45.0368C118.276 44.8131 118.388 44.5893 118.5 44.3656Z" fill="#CED6E2"/>
<g filter="url(#filter1_d_2522_121284)">
<path d="M48.901 25.0073L65.9644 42.7976C66.5257 43.4689 66.5257 44.364 65.8522 44.9234L48.452 61.3711C47.7784 61.9305 46.8803 61.9305 46.319 61.2592L24.5407 38.322C23.9794 37.6507 23.9794 36.7556 24.653 36.1961L37.3382 24.3359L48.901 25.0073Z" fill="#F2F6FA"/>
</g>
<path d="M37.2227 24.1133L41.9375 29.0364C42.6111 29.7076 43.7337 29.7076 44.4073 29.0364L48.7854 24.8965" fill="#D5DAE6"/>
<path d="M38.5703 39.441C38.5703 39.1052 38.6826 38.7696 38.7949 38.4339C38.9072 38.0983 39.0194 37.7626 39.1316 37.4269C39.2439 37.0913 39.4684 36.7556 39.693 36.42C39.9175 36.0842 40.2543 35.7486 40.591 35.4129C41.04 34.9654 41.489 34.6297 42.0504 34.4059C42.4995 34.1821 43.0607 34.0703 43.5098 34.0703C43.9588 34.0703 44.5201 34.1821 44.9692 34.294C45.4182 34.5178 45.8672 34.8535 46.3162 35.1892C46.6531 35.5248 46.9898 35.9723 47.1021 36.42C47.2143 36.7556 47.3266 37.2031 47.4389 37.6507C47.4389 37.9864 47.4389 38.4339 47.4389 38.7696C47.3266 39.1052 47.3266 39.441 47.2143 39.7766C47.2143 40.1122 47.1021 40.336 47.1021 40.6717C47.1021 40.8955 47.1021 41.1193 47.3266 41.343L48.2246 42.6857L46.8775 43.9165L45.5305 42.6857C45.3059 42.462 45.0814 42.2382 44.9692 41.9024C44.8569 41.5668 44.8569 41.343 44.8569 41.0074C44.8569 40.6717 44.9692 40.336 44.9692 40.0004C45.0814 39.6647 45.0814 39.3291 45.0814 38.9933C45.0814 38.6577 45.0814 38.3221 44.9692 37.9864C44.8569 37.6507 44.6323 37.315 44.4079 36.9794C44.2956 36.7556 44.071 36.6437 43.8466 36.5319C43.622 36.42 43.3975 36.42 43.173 36.42C42.9485 36.42 42.7239 36.5319 42.4995 36.6437C42.2749 36.7556 42.0504 36.8675 41.8259 37.0913C41.6013 37.315 41.3769 37.6507 41.1523 37.8745C41.04 38.0983 40.9278 38.322 40.8156 38.6577C40.7033 38.8815 40.7033 39.1052 40.7033 39.2172C40.7033 39.3291 40.591 39.441 40.4787 39.5528C40.3665 39.7766 40.0297 39.7766 39.8052 39.6647L38.5703 39.441ZM48.8982 47.2731C48.7859 47.1613 48.6737 46.9375 48.5615 46.7136C48.4492 46.4899 48.4492 46.2661 48.4492 46.0424C48.4492 45.5948 48.6737 45.1472 49.0105 44.8116C49.1228 44.6997 49.3472 44.5878 49.5718 44.4759C49.7963 44.364 50.0208 44.364 50.2454 44.364C50.9189 44.364 51.5925 44.8116 51.817 45.4829C51.9292 45.7067 51.9292 45.9305 51.9292 46.1542C51.9292 46.378 51.817 46.6018 51.817 46.8256C51.7047 47.0494 51.5925 47.1613 51.3679 47.385C51.2557 47.4969 51.0311 47.7207 50.8067 47.7207C50.3576 47.8326 49.9085 47.8326 49.5718 47.7207C49.2351 47.6088 49.0105 47.4969 48.8982 47.2731Z" fill="#CED6E2"/>
<g filter="url(#filter2_d_2522_121284)">
<path d="M93.4674 52.9814L86.8442 76.59C86.6196 77.3731 85.7215 77.9326 84.9358 77.5969L61.9225 70.8836C61.1367 70.6599 60.5755 69.7647 60.9122 68.9815L69.893 38.5478C70.1175 37.7646 71.0155 37.2051 71.8014 37.5408L88.5281 42.4639L93.4674 52.9814Z" fill="#F2F6FA"/>
</g>
<path d="M88.5285 42.5039L86.3932 49.1758C86.1688 50.0709 86.7301 51.078 87.6281 51.3017L93.5489 52.9692" fill="#D5DAE6"/>
<path d="M75.843 51.5243C76.1799 51.4124 76.5166 51.3005 76.8534 51.1887C77.1902 51.0768 77.527 50.9648 77.976 50.9648C78.425 50.9648 78.7618 50.9648 79.2109 50.9648C79.6599 50.9648 80.1089 51.0768 80.5579 51.1887C81.1192 51.3005 81.6806 51.6362 82.1296 51.9718C82.5786 52.3075 82.9154 52.6432 83.2522 53.0907C83.4768 53.5383 83.7012 53.9858 83.8135 54.4334C83.9258 54.9928 83.8135 55.5522 83.7012 55.9999C83.5889 56.4474 83.3645 56.8949 83.0277 57.3425C82.8032 57.6782 82.4664 58.0138 82.1296 58.2376C81.7928 58.4613 81.4561 58.6852 81.1192 58.7971L80.1089 59.1327C79.8845 59.2446 79.5476 59.3565 79.3232 59.4684C79.0986 59.5803 78.874 59.804 78.874 60.0278L78.2005 61.4823L76.4043 60.6992L76.7412 58.909C76.7412 58.5732 76.9656 58.3495 77.1902 58.1257C77.4147 57.9019 77.6392 57.6782 77.976 57.5663C78.3128 57.4544 78.6496 57.3425 78.874 57.2307C79.2109 57.1188 79.5476 57.0068 79.8845 56.783C80.2212 56.6711 80.4458 56.4474 80.7825 56.2236C81.007 55.9999 81.2315 55.6642 81.3438 55.2166C81.3438 55.1047 81.3438 54.8809 81.3438 54.6572C81.3438 54.4334 81.2315 54.2097 81.1192 53.9858C81.007 53.762 80.7825 53.6502 80.5579 53.4264C80.3335 53.3145 80.1089 53.2026 79.7722 53.0907C79.4353 52.9789 79.0986 52.9789 78.6496 52.9789C78.425 52.9789 78.0883 52.9789 77.8637 53.0907C77.6392 53.0907 77.4147 53.2026 77.3025 53.2026C77.1902 53.2026 77.0779 53.3145 76.8534 53.2026C76.6289 53.2026 76.4043 52.9789 76.4043 52.7551L75.843 51.5243ZM74.1592 64.3914C74.2714 64.1677 74.2714 63.9439 74.496 63.832C74.6082 63.6083 74.8327 63.4964 74.945 63.3845C75.394 63.1608 75.843 63.1608 76.1799 63.2726C76.4043 63.3845 76.6289 63.4964 76.7412 63.6083C76.8534 63.7202 77.0779 63.9439 77.1902 64.0558C77.6392 64.8391 77.3025 65.846 76.5166 66.1816C76.0676 66.4055 75.6186 66.4055 75.2817 66.2936C75.0573 66.1816 74.8327 66.1816 74.7204 65.9579C74.496 65.846 74.3837 65.6222 74.2714 65.5104C74.1592 65.2866 74.1592 65.1747 74.0469 64.9509C74.1592 64.8391 74.1592 64.6152 74.1592 64.3914Z" fill="#CED6E2"/>
<g filter="url(#filter3_d_2522_121284)">
<path d="M147.574 93.3701L125.796 105.118C125.122 105.454 124.112 105.23 123.775 104.447L112.886 83.3001C112.549 82.6288 112.774 81.6218 113.559 81.2861L141.849 66.4049C142.523 66.0693 143.533 66.2931 143.87 67.0763L151.728 82.4051L147.574 93.3701Z" fill="#F2F6FA"/>
</g>
<path d="M151.618 82.6289L145.556 85.7617C144.77 86.2093 144.434 87.3282 144.77 88.1114L147.464 93.482" fill="#D5DAE6"/>
<path d="M136.573 79.7227C136.91 79.8346 137.133 80.0584 137.471 80.1703C137.808 80.2821 138.032 80.5059 138.369 80.8415C138.706 81.1773 138.93 81.401 139.154 81.7367C139.491 82.0723 139.716 82.408 139.94 82.8556C140.277 83.3031 140.389 83.9744 140.389 84.422C140.502 84.9814 140.389 85.429 140.389 85.9885C140.277 86.436 140.052 86.8835 139.828 87.3312C139.491 87.7787 139.042 88.1143 138.593 88.3381C138.256 88.5618 137.695 88.6738 137.246 88.7857C136.91 88.8976 136.348 88.8976 136.011 88.7857C135.675 88.6738 135.225 88.6738 134.889 88.45L133.991 88.0024C133.766 87.8906 133.429 87.7787 133.204 87.6668C132.981 87.5549 132.643 87.5549 132.531 87.7787L131.072 88.3381L130.286 86.6598L131.745 85.6528C131.97 85.429 132.306 85.429 132.643 85.429C132.981 85.429 133.204 85.429 133.541 85.5408C133.879 85.6528 134.102 85.8766 134.327 85.9885C134.664 86.1004 134.889 86.3241 135.337 86.436C135.675 86.5479 135.899 86.5479 136.348 86.6598C136.685 86.6598 137.021 86.5479 137.471 86.3241C137.808 86.1004 138.256 85.7647 138.256 85.2052C138.369 84.9814 138.256 84.7577 138.256 84.422C138.144 84.1983 138.144 83.9744 137.919 83.6388C137.808 83.3031 137.583 83.0794 137.358 82.7437C137.246 82.6318 137.021 82.408 136.797 82.2961C136.685 82.1842 136.46 82.0723 136.348 81.9605C136.235 81.8486 136.123 81.8486 136.011 81.6248C135.899 81.5129 135.899 81.1773 136.011 81.0653L136.573 79.7227ZM126.132 87.443C126.357 87.3312 126.47 87.2193 126.806 87.3312C127.03 87.2193 127.255 87.3312 127.368 87.3312C127.816 87.443 128.153 87.7787 128.266 88.1143C128.378 88.3381 128.378 88.5618 128.378 88.7857C128.378 88.8976 128.378 89.2332 128.378 89.3451C128.266 89.6808 127.929 90.1284 127.591 90.2403C127.368 90.3521 127.143 90.3521 126.918 90.3521C126.806 90.3521 126.47 90.3521 126.357 90.3521C125.908 90.2403 125.572 89.9045 125.459 89.5689C125.347 89.3451 125.347 89.1213 125.347 88.8976C125.234 88.6738 125.347 88.45 125.347 88.3381C125.459 88.1143 125.572 88.0024 125.572 87.7787C125.683 87.6668 126.02 87.6668 126.132 87.443Z" fill="#CED6E2"/>
<path d="M124.227 80.7266V99.3001C124.227 101.65 122.206 103.664 119.849 103.664H58.218C55.8606 103.664 53.8398 101.65 53.8398 99.3001V79.1602" stroke="#1676EE" stroke-width="3" stroke-linecap="round" stroke-linejoin="round"/>
<path d="M121.868 68.7539H100.764C98.7433 68.7539 96.7227 69.4253 95.151 70.7678L89.5381 75.2434C87.9664 76.4742 85.9458 77.2574 83.9251 77.2574H59.9015C57.544 77.2574 55.5234 79.1595 55.5234 81.6211C55.5234 81.8449 55.5234 82.0686 55.6357 82.2924L60.0138 105.23C60.3506 107.355 62.2589 109.034 64.3919 109.034H115.695C117.94 109.034 119.736 107.467 120.072 105.341L126.247 73.7888C126.583 71.4392 125.012 69.2014 122.543 68.8657C122.318 68.7539 122.093 68.7539 121.868 68.7539Z" fill="white"/>
<g filter="url(#filter4_d_2522_121284)">
<path d="M127.704 64.6172H102.558C100.201 64.6172 97.7311 65.5122 95.935 66.9668L89.1994 72.4494C87.2909 74.0158 84.9335 74.7991 82.576 74.7991H53.7254C50.9189 74.7991 48.4492 77.0368 48.4492 80.0578C48.4492 80.2815 48.4492 80.6172 48.5614 80.8411L53.8377 108.702C54.2867 111.275 56.4196 113.289 59.1139 113.289H120.295C122.877 113.289 125.122 111.387 125.572 108.814L132.868 70.6592C133.317 67.8619 131.409 65.0647 128.491 64.6172C128.266 64.6172 127.929 64.6172 127.704 64.6172Z" fill="url(#paint1_linear_2522_121284)"/>
</g>
<path d="M79.2098 93.9292C80.6692 93.9292 81.9041 92.6985 81.9041 91.244C81.9041 89.7894 80.6692 88.5586 79.2098 88.5586C77.7505 88.5586 76.5156 89.7894 76.5156 91.244C76.5156 92.6985 77.7505 93.9292 79.2098 93.9292Z" fill="#989FB0"/>
<path d="M100.202 93.4839C101.661 93.4839 102.896 92.2532 102.896 90.7986C102.896 89.3441 101.661 88.1133 100.202 88.1133C98.7427 88.1133 97.5078 89.3441 97.5078 90.7986C97.5078 92.2532 98.7427 93.4839 100.202 93.4839Z" fill="#989FB0"/>
<path d="M95.3743 97.9599H93.9149C92.68 95.4983 89.6491 94.4914 87.2915 95.8341C86.2812 96.2816 85.4954 97.1768 85.1586 97.9599H83.6992C84.9341 94.7152 88.6387 93.0368 91.782 94.2676C93.4658 94.9389 94.7007 96.2816 95.3743 97.9599Z" fill="#989FB0"/>
<path d="M137.92 122.35C136.686 122.35 137.135 122.462 127.592 112.951C118.387 119.777 105.59 113.175 105.59 101.986C105.59 94.4897 111.764 88.3359 119.285 88.3359C130.175 88.3359 136.91 100.532 130.511 109.818L139.38 118.658C140.839 120.001 139.941 122.35 137.92 122.35ZM119.398 92.6995C114.233 92.6995 109.968 96.8394 109.968 102.098C109.968 107.357 114.122 111.497 119.398 111.497C119.959 111.497 120.521 111.497 121.081 111.385C121.643 111.273 122.204 111.161 122.654 110.937C123.215 110.713 123.663 110.49 124.113 110.266C124.674 109.93 125.123 109.595 125.572 109.147C125.909 108.812 126.358 108.364 126.694 108.028C127.032 107.581 127.369 107.133 127.592 106.686C127.817 106.238 128.042 105.679 128.267 105.119C128.49 104.56 128.603 104 128.603 103.441C128.603 102.993 128.715 102.658 128.715 102.21C128.828 96.8394 124.561 92.6995 119.398 92.6995Z" fill="#989FB0"/>
<path d="M72.5859 86.6588L78.648 83.4141" stroke="#989FB0" stroke-width="1.5" stroke-miterlimit="10"/>
<path d="M105.476 85.091L99.4141 81.7344" stroke="#989FB0" stroke-width="1.5" stroke-miterlimit="10"/>
<defs>
<filter id="filter0_d_2522_121284" x="78.9375" y="0.640625" width="87.9453" height="96.3516" filterUnits="userSpaceOnUse" color-interpolation-filters="sRGB">
<feFlood flood-opacity="0" result="BackgroundImageFix"/>
<feColorMatrix in="SourceAlpha" type="matrix" values="0 0 0 0 0 0 0 0 0 0 0 0 0 0 0 0 0 0 127 0" result="hardAlpha"/>
<feOffset dy="11"/>
<feGaussianBlur stdDeviation="11"/>
<feColorMatrix type="matrix" values="0 0 0 0 0.397708 0 0 0 0 0.47749 0 0 0 0 0.575 0 0 0 0.27 0"/>
<feBlend mode="normal" in2="BackgroundImageFix" result="effect1_dropShadow_2522_121284"/>
<feBlend mode="normal" in="SourceGraphic" in2="effect1_dropShadow_2522_121284" result="shape"/>
</filter>
<filter id="filter1_d_2522_121284" x="2.13281" y="13.3359" width="86.2383" height="81.4414" filterUnits="userSpaceOnUse" color-interpolation-filters="sRGB">
<feFlood flood-opacity="0" result="BackgroundImageFix"/>
<feColorMatrix in="SourceAlpha" type="matrix" values="0 0 0 0 0 0 0 0 0 0 0 0 0 0 0 0 0 0 127 0" result="hardAlpha"/>
<feOffset dy="11"/>
<feGaussianBlur stdDeviation="11"/>
<feColorMatrix type="matrix" values="0 0 0 0 0.397708 0 0 0 0 0.47749 0 0 0 0 0.575 0 0 0 0.27 0"/>
<feBlend mode="normal" in2="BackgroundImageFix" result="effect1_dropShadow_2522_121284"/>
<feBlend mode="normal" in="SourceGraphic" in2="effect1_dropShadow_2522_121284" result="shape"/>
</filter>
<filter id="filter2_d_2522_121284" x="38.8125" y="26.4414" width="76.6562" height="84.2539" filterUnits="userSpaceOnUse" color-interpolation-filters="sRGB">
<feFlood flood-opacity="0" result="BackgroundImageFix"/>
<feColorMatrix in="SourceAlpha" type="matrix" values="0 0 0 0 0 0 0 0 0 0 0 0 0 0 0 0 0 0 127 0" result="hardAlpha"/>
<feOffset dy="11"/>
<feGaussianBlur stdDeviation="11"/>
<feColorMatrix type="matrix" values="0 0 0 0 0.397708 0 0 0 0 0.47749 0 0 0 0 0.575 0 0 0 0.27 0"/>
<feBlend mode="normal" in2="BackgroundImageFix" result="effect1_dropShadow_2522_121284"/>
<feBlend mode="normal" in="SourceGraphic" in2="effect1_dropShadow_2522_121284" result="shape"/>
</filter>
<filter id="filter3_d_2522_121284" x="90.7344" y="55.2539" width="82.9922" height="83.0156" filterUnits="userSpaceOnUse" color-interpolation-filters="sRGB">
<feFlood flood-opacity="0" result="BackgroundImageFix"/>
<feColorMatrix in="SourceAlpha" type="matrix" values="0 0 0 0 0 0 0 0 0 0 0 0 0 0 0 0 0 0 127 0" result="hardAlpha"/>
<feOffset dy="11"/>
<feGaussianBlur stdDeviation="11"/>
<feColorMatrix type="matrix" values="0 0 0 0 0.397708 0 0 0 0 0.47749 0 0 0 0 0.575 0 0 0 0.27 0"/>
<feBlend mode="normal" in2="BackgroundImageFix" result="effect1_dropShadow_2522_121284"/>
<feBlend mode="normal" in="SourceGraphic" in2="effect1_dropShadow_2522_121284" result="shape"/>
</filter>
<filter id="filter4_d_2522_121284" x="26.4492" y="53.6172" width="128.484" height="92.6719" filterUnits="userSpaceOnUse" color-interpolation-filters="sRGB">
<feFlood flood-opacity="0" result="BackgroundImageFix"/>
<feColorMatrix in="SourceAlpha" type="matrix" values="0 0 0 0 0 0 0 0 0 0 0 0 0 0 0 0 0 0 127 0" result="hardAlpha"/>
<feOffset dy="11"/>
<feGaussianBlur stdDeviation="11"/>
<feColorMatrix type="matrix" values="0 0 0 0 0.397708 0 0 0 0 0.47749 0 0 0 0 0.575 0 0 0 0.27 0"/>
<feBlend mode="normal" in2="BackgroundImageFix" result="effect1_dropShadow_2522_121284"/>
<feBlend mode="normal" in="SourceGraphic" in2="effect1_dropShadow_2522_121284" result="shape"/>
</filter>
<linearGradient id="paint0_linear_2522_121284" x1="88.8641" y1="59.8465" x2="88.8641" y2="77.3141" gradientUnits="userSpaceOnUse">
<stop stop-color="#B0BACC"/>
<stop offset="1" stop-color="#969EAE"/>
</linearGradient>
<linearGradient id="paint1_linear_2522_121284" x1="90.6639" y1="63.4913" x2="90.6639" y2="113.813" gradientUnits="userSpaceOnUse">
<stop stop-color="#FDFEFF"/>
<stop offset="0.9964" stop-color="#ECF0F5"/>
</linearGradient>
</defs>
</svg>
