<svg width="18" height="18" viewBox="0 0 18 18" fill="none" xmlns="http://www.w3.org/2000/svg">
<path d="M10.8137 4.11756C10.4567 4.05161 10.1288 4.27945 10.0608 4.62796C9.99283 4.97647 10.2214 5.31674 10.5687 5.38494C11.6144 5.5888 12.4218 6.39825 12.6265 7.44753V7.44828C12.6847 7.75032 12.9507 7.96992 13.2569 7.96992C13.298 7.96992 13.3391 7.96617 13.3809 7.95868C13.7282 7.88897 13.9568 7.54946 13.8888 7.2002C13.5833 5.63302 12.377 4.4226 10.8137 4.11756Z" fill="#3C3C3C"/>
<path d="M10.767 1.50595C10.5997 1.48196 10.4316 1.53143 10.2979 1.63786C10.1605 1.74578 10.0746 1.90168 10.0559 2.07631C10.0163 2.42931 10.271 2.74859 10.6236 2.78832C13.0548 3.05963 14.9445 4.95358 15.2179 7.3924C15.2545 7.71918 15.5286 7.96576 15.8558 7.96576C15.8804 7.96576 15.9043 7.96426 15.929 7.96126C16.1 7.94253 16.2524 7.85784 16.36 7.72293C16.4668 7.58802 16.5153 7.42014 16.4959 7.2485C16.1553 4.20559 13.8002 1.84397 10.767 1.50595Z" fill="#3C3C3C"/>
<path fill-rule="evenodd" clip-rule="evenodd" d="M8.27381 9.72929C11.2656 12.7203 11.9443 9.26004 13.8492 11.1636C15.6857 12.9996 16.7412 13.3674 14.4144 15.6935C14.123 15.9278 12.2712 18.7457 5.76345 12.2397C-0.745109 5.733 2.07119 3.87933 2.30548 3.58796C4.6379 1.25538 4.9994 2.31704 6.83587 4.153C8.74077 6.05737 5.28199 6.73831 8.27381 9.72929Z" fill="#3C3C3C"/>
</svg>
